<?xml version="1.0" standalone="no"?><!DOCTYPE svg PUBLIC "-//W3C//DTD SVG 1.1//EN" "http://www.w3.org/Graphics/SVG/1.1/DTD/svg11.dtd"><svg t="1613987265091" class="icon" viewBox="0 0 1024 1024" version="1.1" xmlns="http://www.w3.org/2000/svg" p-id="9819" width="18" height="18" xmlns:xlink="http://www.w3.org/1999/xlink"><defs><style type="text/css"></style></defs><path d="M826.4192 972.8H195.2768c-19.6096 0-35.4816-15.872-35.4816-35.4816v-453.12c0-19.6096 15.9232-35.5328 35.4816-35.5328H220.16V369.7152c-0.512-8.4992-1.0752-17.5104-1.0752-26.4704C219.0848 182.1184 350.0032 51.2 511.1296 51.2s291.9936 130.9184 291.9936 291.9936v104.9088h23.8592c19.6096 0 35.4816 15.9232 35.4816 35.5328v452.608c0 20.6848-15.872 36.5568-36.0448 36.5568z m-333.312-234.24v82.1248h35.5328v-82.1248c33.8944-7.936 59.3408-38.7072 59.3408-75.264 0-42.9056-34.4576-77.3632-77.3632-77.3632-42.9056 0-77.3632 34.4576-77.3632 77.3632-0.0512 36.0448 25.9072 66.7648 59.8528 75.264z m232.0896-392.704v-2.0992c0-118.7328-95.8976-214.6304-214.6304-214.6304S296.4992 225.024 296.4992 343.7568v104.9088h429.2608l-0.5632-102.8096z m0 0" p-id="9820" fill="#969696"></path></svg>