<?xml version="1.0" standalone="no"?><!DOCTYPE svg PUBLIC "-//W3C//DTD SVG 1.1//EN" "http://www.w3.org/Graphics/SVG/1.1/DTD/svg11.dtd"><svg t="1613987243901" class="icon" viewBox="0 0 1024 1024" version="1.1" xmlns="http://www.w3.org/2000/svg" p-id="8264" width="18" height="18" xmlns:xlink="http://www.w3.org/1999/xlink"><defs><style type="text/css"></style></defs><path d="M144.265881 938.629522c0 46.985226 37.821534 85.370478 84.098835 85.370478h566.70685c46.631264 0 84.79365-38.739214 84.79365-86.078402V86.078402C879.865216 38.739214 841.702829 0 795.071566 0H228.928434C182.284061 0 144.134784 38.739214 144.134784 86.078402v852.55112zM295.538907 106.582h432.214262c25.839252 0 46.985226 21.460607 46.985226 47.69315v523.339906c0 26.219434-21.145974 47.693151-46.985226 47.69315H296.233722c-25.839252 0-46.985226-21.460607-46.985226-47.69315V153.567226c0-25.642607 20.975547-46.985226 46.290411-46.985226z m163.871463 757.400793c0-28.841378 21.631033-51.730944 49.59406-53.212341 31.201127-1.651824 57.289464 25.209986 55.283677 56.856843-1.796031 28.172782-24.226757 49.659608-52.438869 49.659608-29.352657 0.131097-52.438868-23.361516-52.438868-53.30411z m0 0" p-id="8265" fill="#969696"></path></svg>