<?xml version="1.0" standalone="no"?><!DOCTYPE svg PUBLIC "-//W3C//DTD SVG 1.1//EN" "http://www.w3.org/Graphics/SVG/1.1/DTD/svg11.dtd"><svg t="1613987211308" class="icon" viewBox="0 0 1024 1024" version="1.1" xmlns="http://www.w3.org/2000/svg" p-id="6035" width="18" height="18" xmlns:xlink="http://www.w3.org/1999/xlink"><defs><style type="text/css"></style></defs><path d="M316.96155072 147.88492711c27.93801594-34.05628613 62.40370697-56.21340226 94.43697812-70.59421619 15.41573439-6.92027192 31.55663149-11.84154073 47.6230924-15.12398735 17.74250123-3.62461794 35.49820865-5.24062969 52.11214467-5.34147944l0.09484736 0 0.77078719-0.00120025 0.7707872 0.00120025 0.09484735 0c16.61393484 0.10085091 34.36844201 1.71686149 52.11214468 5.34147944 16.06646091 3.2824466 32.20735801 8.20371543 47.6230924 15.12398735 32.03447139 14.38081512 66.50016243 36.53793125 94.43577787 70.59421619 22.19793612 27.06037543 40.12412968 61.36758746 49.23670133 104.83539492 6.46884558 30.85668095 8.53388083 65.63692953 5.58880344 99.67160426-2.79260076 32.30340679-10.10066734 64.33187461-22.43685608 92.26148649-6.72457363 15.22243659-16.02924163 32.97694379-28.89969927 52.85171497-10.30356945 15.90798073-22.79703692 33.00095569-37.94023401 50.97157233-2.6773434 4.73277435-11.94359191 23.92800499 6.67534841 35.0455821 21.40313821 12.78161265 73.43484195 44.15935396 121.80470847 73.73619211 31.68749671 19.3753199 63.15648466 38.81787453 85.72900924 53.19508775 16.43864655 10.47285417 36.18735468 23.65786934 52.70884382 40.56234983 18.4124375 18.83865166 32.51351151 41.85179689 34.23877705 70.19081368 0.50785535 8.32617659 0.74077173 18.15310756 0.78039148 28.42666153 0.04202141 11.39011443-0.18489257 22.57852699-0.56068129 32.36103488-0.86923646 22.64936245-5.56239105 42.47971174-17.09297497 57.78498975-12.63033627 16.76521122-31.68389598 26.77343169-60.01570897 27.39894606l-0.47543823 0c-111.27902719-0.40340252-239.0447259-0.60510319-384.37883899-0.60510319s-273.09981179 0.20170067-384.37883898 0.60510319l-0.47423798 0c-28.33181417-0.62551437-47.38537272-10.63373484-60.01450874-27.39894606-11.5305851-15.30527802-16.22493992-35.13562731-17.09297497-57.78498975-0.37578872-9.78250789-0.60270271-20.97212188-0.56068129-32.3622363 0.0372181-10.27235373 0.27373756-20.09808328 0.77919125-28.42546129 1.72646578-28.33901798 15.82754097-51.35096178 34.23997729-70.19081368 16.52268937-16.90448049 36.26899585-30.0906959 52.70884381-40.56234982 22.57012294-14.3760118 54.03670921-33.81616477 85.7206052-53.19148585 48.37226819-29.57683816 100.40757383-60.95698114 121.81191227-73.73979403 18.61894149-11.11877853 9.35269181-30.31280774 6.67534843-35.04558209-15.14079543-17.97061545-27.63546434-35.06359161-37.93903379-50.9715723-12.87165787-19.87477119-22.17752613-37.62927838-28.89969927-52.85171499-12.33618872-27.92961189-19.64425531-59.95808089-22.43805748-92.2614865-2.9450774-34.03467473-0.8776405-68.8149233 5.58880344-99.67160425C276.83862244 209.25251457 294.76361459 174.94410232 316.96155072 147.88492711" fill="#969696" p-id="6036"></path></svg>